<svg xmlns="http://www.w3.org/2000/svg" viewBox="0 0 512 512" role="img" aria-label="Dreamland">
  <rect width="512" height="512" fill="#000000"/>
  <path fill="#FF0055" d="M256 72c101.6 0 184 82.4 184 184s-82.4 184-184 184c-50.8 0-96.8-20.6-130.1-54l46.1-46.1c22.9 22.9 54.5 37.1 89.5 37.1 69.6 0 126-56.4 126-126s-56.4-126-126-126c-35 0-66.6 14.2-89.5 37.1l-46.1-46.1C159.2 92.6 205.2 72 256 72z"/>
  <circle cx="256" cy="256" r="68" fill="none" stroke="#FFFFFF" stroke-width="10"/>
  <path fill="#FF0055" d="M238 228c-6.6 0-12 5.4-12 12v40c0 6.6 5.4 12 12 12 2.8 0 5.4-1 7.4-2.7l34-25.3c4.8-3.6 5.8-10.4 2.2-15.2-1.1-1.5-2.6-2.7-4.3-3.5l-34-18.3c-2-1.1-4.2-1.7-6.5-1.7z"/>
  <path fill="#FFFFFF" d="M392 256l24 24-24 24-24-24z"/>
</svg>
